<svg width="373" height="258" viewBox="0 0 373 258" fill="none" xmlns="http://www.w3.org/2000/svg">
<path d="M347.792 27.3218L349.609 34.5912L354.819 29.1997C357.04 26.9078 360.857 29.1088 359.978 32.1781L357.919 39.3869L365.128 37.3273C368.197 36.4489 370.398 40.2653 368.106 42.4865L362.715 47.6962L369.984 49.5136C373.083 50.291 373.083 54.693 369.984 55.4705L362.715 57.2878L368.106 62.4975C370.398 64.7187 368.197 68.5352 365.128 67.6568L357.919 65.5971L359.978 72.8059C360.857 75.8752 357.04 78.0762 354.819 75.7844L349.609 70.3929L347.792 77.6623C347.015 80.7619 342.613 80.7619 341.835 77.6623L340.018 70.3929L334.808 75.7844C332.587 78.0762 328.771 75.8752 329.649 72.8059L331.709 65.5971L324.5 67.6568C321.43 68.5352 319.229 64.7187 321.521 62.4975L326.903 57.2979L319.633 55.4805C316.534 54.7031 316.534 50.3011 319.633 49.5237L326.903 47.7063L321.511 42.4966C319.219 40.2754 321.42 36.459 324.49 37.3374L331.698 39.397L329.639 32.1882C328.76 29.1189 332.577 26.9179 334.798 29.2098L340.018 34.5912L341.835 27.3218C342.613 24.2222 347.015 24.2222 347.792 27.3218Z" fill="#00C0CC"/>
<path d="M351.998 50.8332C351.796 50.4933 351.434 50.2824 351.039 50.2753L345.153 50.1631L346.574 41.4076C346.663 40.8569 346.34 40.3219 345.81 40.1447C345.279 39.9694 344.699 40.2017 344.442 40.6968L336.969 54.9579C336.786 55.3075 336.797 55.7268 336.997 56.0661C337.199 56.4061 337.561 56.617 337.956 56.6241L343.842 56.7363L342.421 65.4918C342.332 66.0425 342.655 66.5775 343.185 66.7546C343.714 66.9295 344.293 66.6989 344.553 66.2026L352.026 51.9415C352.209 51.5919 352.198 51.1725 351.998 50.8332Z" fill="white"/>
<path d="M284.717 173.264L295.484 209.794C296.794 214.241 291.945 218.037 287.929 215.621L196.077 160.673C195.006 160.052 194.25 158.993 194.038 157.773L179.42 84.7475L284.717 173.264Z" fill="#8700DC"/>
<path d="M258.499 188.813L90.1483 182.64C54.4548 181.331 26.5827 151.337 27.8899 115.69C29.1988 79.997 59.1928 52.1249 94.8863 53.4338L263.284 59.6089C298.978 60.9178 326.85 90.9118 325.541 126.605C324.186 162.25 294.192 190.122 258.499 188.813Z" fill="#8700DC"/>
<path d="M75.8421 141.565L78.2301 130.465L70.643 130.355L68.2257 141.454L61.7811 141.361L64.1398 130.261L57.5487 130.165L58.8416 123.855L65.4913 123.952L67.1881 116.065L60.4505 115.967L61.7426 109.716L68.5388 109.815L70.8614 99.1833L77.306 99.2769L75.042 109.909L82.6291 110.019L84.9224 99.3875L91.4256 99.482L89.1323 110.114L96.0456 110.214L94.7828 116.466L87.7816 116.364L86.0556 124.25L93.1154 124.353L91.8517 130.663L84.7333 130.56L82.3453 141.659L75.8421 141.565ZM71.4299 124.595L79.8372 124.717L81.8133 115.75L73.3767 115.628L71.4299 124.595ZM126.784 142.305L123.711 132.005L108.859 131.789L105.487 141.995L96.4063 141.863L111.696 99.8057L122.096 99.9568L136.187 142.441L126.784 142.305ZM116.53 107.963L110.859 125.197L121.903 125.357L116.735 107.966L116.53 107.963ZM138.237 130.429L146.761 130.553C146.932 132.274 147.82 133.684 149.425 134.781C151.05 135.86 153.044 136.416 155.407 136.45C157.751 136.484 159.662 136.014 161.141 135.039C162.64 134.045 163.401 132.767 163.424 131.205C163.444 129.838 162.913 128.726 161.831 127.871C160.75 127.015 158.934 126.286 156.384 125.682L150.894 124.401C143.165 122.628 139.346 118.637 139.436 112.427C139.492 108.56 141.041 105.457 144.083 103.118C147.145 100.78 151.049 99.6448 155.794 99.7138C160.677 99.7847 164.556 101.003 167.432 103.37C170.308 105.716 171.758 108.814 171.78 112.662L163.49 112.542C163.379 110.763 162.608 109.355 161.178 108.318C159.767 107.263 157.949 106.718 155.722 106.686C153.535 106.654 151.761 107.107 150.399 108.045C149.057 108.982 148.375 110.232 148.352 111.794C148.334 113.083 148.856 114.136 149.918 114.952C151 115.769 152.758 116.478 155.19 117.08L160.301 118.238C164.526 119.198 167.591 120.649 169.497 122.591C171.403 124.513 172.332 127.086 172.285 130.308C172.226 134.409 170.636 137.648 167.515 140.025C164.394 142.382 160.207 143.523 154.954 143.446C149.857 143.372 145.811 142.181 142.817 139.871C139.843 137.543 138.316 134.395 138.237 130.429ZM186.397 143.171L177.55 143.042L178.164 100.771L187.011 100.9L186.731 120.175L186.994 120.179L203.152 101.134L212.994 101.277L197.079 119.798L213.464 143.564L202.889 143.41L190.608 125.564L186.584 130.252L186.397 143.171ZM226.499 101.473L226.115 127.926C226.075 130.679 226.814 132.878 228.334 134.521C229.873 136.145 232.048 136.978 234.86 137.018C237.653 137.059 239.832 136.29 241.399 134.711C242.984 133.113 243.797 130.937 243.837 128.183L244.222 101.731L253.068 101.859L252.671 129.19C252.603 133.877 250.937 137.643 247.673 140.486C244.428 143.31 240.121 144.684 234.75 144.605C229.36 144.527 225.075 143.029 221.894 140.112C218.733 137.175 217.187 133.363 217.255 128.676L217.652 101.345L226.499 101.473ZM258.107 132.17L266.632 132.294C266.802 134.015 267.69 135.425 269.295 136.522C270.92 137.601 272.914 138.157 275.277 138.191C277.621 138.226 279.532 137.755 281.011 136.78C282.51 135.787 283.271 134.508 283.294 132.946C283.314 131.579 282.783 130.468 281.701 129.612C280.62 128.756 278.804 128.027 276.254 127.423L270.764 126.142C263.035 124.37 259.216 120.378 259.306 114.168C259.362 110.301 260.911 107.198 263.954 104.859C267.015 102.521 270.919 101.386 275.664 101.455C280.547 101.526 284.426 102.744 287.302 105.111C290.178 107.457 291.628 110.555 291.65 114.403L283.36 114.283C283.249 112.504 282.478 111.096 281.048 110.059C279.637 109.004 277.819 108.46 275.592 108.427C273.405 108.396 271.631 108.848 270.269 109.786C268.928 110.723 268.245 111.973 268.223 113.536C268.204 114.825 268.726 115.877 269.788 116.693C270.87 117.51 272.628 118.219 275.061 118.821L280.171 119.979C284.396 120.939 287.461 122.39 289.367 124.332C291.273 126.255 292.202 128.827 292.155 132.049C292.096 136.15 290.506 139.389 287.385 141.766C284.264 144.123 280.077 145.264 274.824 145.188C269.727 145.114 265.681 143.922 262.687 141.612C259.713 139.284 258.186 136.136 258.107 132.17Z" fill="white"/>
</svg>
