<svg width="40" height="41" viewBox="0 0 40 41" fill="none" xmlns="http://www.w3.org/2000/svg">
<path d="M31.1211 22.3187L31.2061 22.1837L31.2011 22.172C31.4894 21.6787 31.6661 21.112 31.6661 20.4987C31.6661 18.8754 30.5044 17.527 28.9678 17.2287L23.3328 15.4987V7.16536C23.3328 5.3237 21.8411 3.83203 19.9994 3.83203C18.8128 3.83203 17.7778 4.45703 17.1861 5.39203L17.1778 5.39036L8.93776 18.592C8.55943 19.132 8.33276 19.787 8.33276 20.4987C8.33276 22.0154 9.3511 23.2804 10.7361 23.6837L10.7394 23.6937L16.6661 25.4987V33.832C16.6661 35.6737 18.1578 37.1654 19.9994 37.1654C21.2878 37.1654 22.3928 36.4254 22.9478 35.3554L31.0811 22.3804C31.0961 22.3604 31.1078 22.3387 31.1211 22.3187Z" fill="#333333"/>
<path opacity="0.35" d="M3.33317 22.1654C4.25365 22.1654 4.99984 21.4192 4.99984 20.4987C4.99984 19.5782 4.25365 18.832 3.33317 18.832C2.4127 18.832 1.6665 19.5782 1.6665 20.4987C1.6665 21.4192 2.4127 22.1654 3.33317 22.1654Z" fill="#333333"/>
<path opacity="0.35" d="M7.15485 11.6807C7.47985 12.0057 7.90651 12.169 8.33318 12.169C8.75985 12.169 9.18651 12.0057 9.51151 11.6807C10.1632 11.029 10.1632 9.9757 9.51151 9.32404L6.17818 5.9907C5.52651 5.33904 4.47318 5.33904 3.82151 5.9907C3.16985 6.64237 3.16985 7.6957 3.82151 8.34737L7.15485 11.6807Z" fill="#333333"/>
<path opacity="0.35" d="M7.15485 29.3208L3.82151 32.6541C3.16985 33.3058 3.16985 34.3591 3.82151 35.0108C4.14651 35.3358 4.57318 35.4991 4.99985 35.4991C5.42651 35.4991 5.85318 35.3358 6.17818 35.0108L9.51151 31.6775C10.1632 31.0258 10.1632 29.9724 9.51151 29.3208C8.85985 28.6691 7.80651 28.6691 7.15485 29.3208Z" fill="#333333"/>
<g opacity="0.35">
<path d="M36.6672 22.1654C37.5876 22.1654 38.3338 21.4192 38.3338 20.4987C38.3338 19.5782 37.5876 18.832 36.6672 18.832C35.7467 18.832 35.0005 19.5782 35.0005 20.4987C35.0005 21.4192 35.7467 22.1654 36.6672 22.1654Z" fill="#333333"/>
<path d="M32.8459 29.3208C32.1942 28.6691 31.1409 28.6691 30.4892 29.3208C29.8376 29.9724 29.8376 31.0258 30.4892 31.6775L33.8226 35.0108C34.1476 35.3358 34.5742 35.4991 35.0009 35.4991C35.4276 35.4991 35.8542 35.3358 36.1792 35.0108C36.8309 34.3591 36.8309 33.3058 36.1792 32.6541L32.8459 29.3208Z" fill="#333333"/>
<path d="M32.8455 5.9907C32.1938 5.33904 31.1405 5.33904 30.4888 5.9907L27.1555 9.32404C26.5038 9.9757 26.5038 11.029 27.1555 11.6807C27.4805 12.0057 27.9072 12.169 28.3338 12.169C28.7605 12.169 29.1872 12.0057 29.5122 11.6807L32.8455 8.34737C33.4972 7.6957 33.4972 6.64237 32.8455 5.9907Z" fill="#333333"/>
</g>
</svg>
